<svg width="34" height="19" viewBox="0 0 34 19" fill="none" xmlns="http://www.w3.org/2000/svg">
<path d="M3 2V18M15 2V18M5 2H1M15 10H3M5 18H1M17 18H13M17 2H13" stroke="black" stroke-width="2" stroke-linecap="round" stroke-linejoin="round"/>
<path d="M21.8745 19.0002V17.4086L27.8519 10.8653C28.5534 10.0989 29.1311 9.43283 29.585 8.86693C30.0389 8.29513 30.3749 7.75873 30.593 7.25763C30.817 6.75063 30.929 6.22013 30.929 5.66603C30.929 5.02933 30.7758 4.47813 30.4692 4.01253C30.1686 3.54683 29.7559 3.18723 29.2313 2.93373C28.7066 2.68023 28.1172 2.55353 27.4628 2.55353C26.7672 2.55353 26.1601 2.69793 25.6413 2.98673C25.1285 3.26973 24.7305 3.66763 24.4476 4.18053C24.1705 4.69333 24.032 5.29463 24.032 5.98433H21.9452C21.9452 4.92323 22.1899 3.99183 22.6791 3.19014C23.1684 2.38844 23.8345 1.76358 24.6775 1.31557C25.5264 0.867565 26.4784 0.643555 27.5336 0.643555C28.5946 0.643555 29.5349 0.867565 30.3543 1.31557C31.1737 1.76358 31.8162 2.36783 32.2819 3.12823C32.7476 3.88873 32.9804 4.73463 32.9804 5.66603C32.9804 6.33213 32.8596 6.98353 32.6179 7.62013C32.3821 8.25093 31.9695 8.95533 31.38 9.73343C30.7964 10.5057 29.9858 11.4489 28.9483 12.563L24.8809 16.9134V17.0549H33.2988V19.0002H21.8745Z" fill="black"/>
</svg>
