<svg width="19" height="16" viewBox="0 0 19 16" fill="none" xmlns="http://www.w3.org/2000/svg">
<path d="M18 8H6M18 2H6M18 14H6" stroke="black" stroke-width="2" stroke-linecap="round" stroke-linejoin="round"/>
<path d="M1.60152 0.0908203V2.99991H0.986461V0.67463H0.969416L0.303223 1.09224V0.54679L1.02339 0.0908203H1.60152Z" fill="black"/>
<path d="M0.235929 9.00013V8.55695L1.27144 7.59814C1.3595 7.51291 1.43337 7.43621 1.49303 7.36803C1.55363 7.29985 1.59956 7.23308 1.63081 7.16774C1.66206 7.10146 1.67769 7.02996 1.67769 6.95326C1.67769 6.86803 1.65827 6.79464 1.61945 6.73308C1.58062 6.67058 1.52759 6.62276 1.46036 6.58962C1.39312 6.55553 1.31689 6.53848 1.23166 6.53848C1.14265 6.53848 1.065 6.55647 0.998713 6.59246C0.932425 6.62844 0.881289 6.68005 0.845304 6.74729C0.80932 6.81452 0.791327 6.89454 0.791327 6.98735H0.20752C0.20752 6.79701 0.250607 6.63176 0.336782 6.49161C0.422956 6.35146 0.543694 6.24303 0.698997 6.16632C0.8543 6.08962 1.03327 6.05127 1.23593 6.05127C1.44426 6.05127 1.6256 6.0882 1.77996 6.16206C1.93526 6.23498 2.056 6.3363 2.14218 6.46604C2.22835 6.59577 2.27144 6.74445 2.27144 6.91206C2.27144 7.02191 2.24966 7.13034 2.2061 7.23735C2.16348 7.34435 2.08725 7.4632 1.9774 7.59388C1.86755 7.72361 1.71272 7.87939 1.51291 8.06121L1.0882 8.4774V8.49729H2.30979V9.00013H0.235929Z" fill="black"/>
<path d="M1.31121 15.04C1.09909 15.04 0.910172 15.0035 0.744452 14.9306C0.579679 14.8567 0.449471 14.7554 0.353827 14.6266C0.25913 14.4969 0.210361 14.3473 0.20752 14.1778H0.826838C0.830625 14.2488 0.853827 14.3113 0.896441 14.3653C0.940001 14.4183 0.997767 14.4595 1.06973 14.4888C1.1417 14.5182 1.22267 14.5329 1.31263 14.5329C1.40638 14.5329 1.48924 14.5163 1.56121 14.4832C1.63318 14.45 1.68952 14.4041 1.73024 14.3454C1.77096 14.2867 1.79132 14.219 1.79132 14.1422C1.79132 14.0646 1.76954 13.9959 1.72598 13.9363C1.68337 13.8757 1.62182 13.8283 1.54132 13.7942C1.46178 13.7601 1.36708 13.7431 1.25723 13.7431H0.985929V13.2914H1.25723C1.35004 13.2914 1.43195 13.2753 1.50297 13.2431C1.57494 13.2109 1.63081 13.1664 1.67058 13.1096C1.71036 13.0518 1.73024 12.9846 1.73024 12.9079C1.73024 12.835 1.71272 12.771 1.67769 12.7161C1.6436 12.6602 1.5953 12.6167 1.5328 12.5854C1.47125 12.5542 1.39928 12.5386 1.31689 12.5386C1.23356 12.5386 1.15733 12.5537 1.0882 12.584C1.01907 12.6134 0.963676 12.6555 0.922009 12.7104C0.880342 12.7654 0.858088 12.8297 0.855247 12.9036H0.265759C0.2686 12.736 0.316422 12.5883 0.409225 12.4604C0.502028 12.3326 0.627028 12.2327 0.784225 12.1607C0.942369 12.0878 1.12087 12.0513 1.31973 12.0513C1.52049 12.0513 1.69615 12.0878 1.84672 12.1607C1.99729 12.2336 2.11424 12.3321 2.19757 12.4562C2.28185 12.5793 2.32352 12.7175 2.32257 12.8709C2.32352 13.0338 2.27286 13.1697 2.17058 13.2786C2.06926 13.3875 1.93716 13.4566 1.77428 13.486V13.5087C1.98829 13.5362 2.15117 13.6105 2.26291 13.7317C2.3756 13.852 2.43147 14.0026 2.43053 14.1834C2.43147 14.3492 2.38365 14.4964 2.28706 14.6252C2.19142 14.754 2.05932 14.8553 1.89075 14.9292C1.72219 15.003 1.52901 15.04 1.31121 15.04Z" fill="black"/>
</svg>
